<svg xmlns="http://www.w3.org/2000/svg" width="1000" height="420" viewBox="0 0 1000 420">
  <defs>
    <linearGradient id="bg" x1="0" y1="0" x2="0" y2="1">
      <stop offset="0%" stop-color="#0b1220" />
      <stop offset="100%" stop-color="#0b1220" />
    </linearGradient>
  </defs>
  <rect x="0" y="0" width="1000" height="420" fill="url(#bg)" />
  <text x="50" y="18" fill="#e5e7eb" font-family="system-ui, -apple-system, sans-serif" font-size="14" font-weight="700">HINDCOPPER — EOD (cached)</text>
  <text x="50" y="36" fill="#9ca3af" font-family="system-ui, -apple-system, sans-serif" font-size="12">2026-08-26 close 556.05 | range 449.15–606.45</text>

  <g><line x1="50" y1="22.00" x2="980" y2="22.00" stroke="#1f2937" stroke-opacity="0.25" /><line x1="50" y1="109.50" x2="980" y2="109.50" stroke="#1f2937" stroke-opacity="0.25" /><line x1="50" y1="197.00" x2="980" y2="197.00" stroke="#1f2937" stroke-opacity="0.25" /><line x1="50" y1="284.50" x2="980" y2="284.50" stroke="#1f2937" stroke-opacity="0.25" /><line x1="50" y1="372.00" x2="980" y2="372.00" stroke="#1f2937" stroke-opacity="0.25" /></g>
  <rect x="50" y="22" width="930" height="350" fill="none" stroke="#334155" stroke-opacity="0.7" />

  <g><line x1="50.00" y1="54.15" x2="50.00" y2="125.35" stroke="#ef4444" stroke-width="1" stroke-linecap="round" /><rect x="47.50" y="74.18" width="5.01" height="43.05" rx="1" ry="1" fill="#ef4444" fill-opacity="0.85" /><line x1="57.21" y1="94.65" x2="57.21" y2="124.02" stroke="#22c55e" stroke-width="1" stroke-linecap="round" /><rect x="54.71" y="105.22" width="5.01" height="9.01" rx="1" ry="1" fill="#22c55e" fill-opacity="0.85" /><line x1="64.42" y1="69.84" x2="64.42" y2="125.24" stroke="#ef4444" stroke-width="1" stroke-linecap="round" /><rect x="61.91" y="71.95" width="5.01" height="45.95" rx="1" ry="1" fill="#ef4444" fill-opacity="0.85" /><line x1="71.63" y1="105.22" x2="71.63" y2="133.25" stroke="#ef4444" stroke-width="1" stroke-linecap="round" /><rect x="69.12" y="105.33" width="5.01" height="12.35" rx="1" ry="1" fill="#ef4444" fill-opacity="0.85" /><line x1="78.84" y1="60.83" x2="78.84" y2="109.44" stroke="#22c55e" stroke-width="1" stroke-linecap="round" /><rect x="76.33" y="67.61" width="5.01" height="38.16" rx="1" ry="1" fill="#22c55e" fill-opacity="0.85" /><line x1="86.05" y1="55.15" x2="86.05" y2="85.86" stroke="#ef4444" stroke-width="1" stroke-linecap="round" /><rect x="83.54" y="58.60" width="5.01" height="13.91" rx="1" ry="1" fill="#ef4444" fill-opacity="0.85" /><line x1="93.26" y1="61.49" x2="93.26" y2="124.69" stroke="#ef4444" stroke-width="1" stroke-linecap="round" /><rect x="90.75" y="71.73" width="5.01" height="39.61" rx="1" ry="1" fill="#ef4444" fill-opacity="0.85" /><line x1="100.47" y1="59.05" x2="100.47" y2="136.48" stroke="#22c55e" stroke-width="1" stroke-linecap="round" /><rect x="97.96" y="89.75" width="5.01" height="27.81" rx="1" ry="1" fill="#22c55e" fill-opacity="0.85" /><line x1="107.67" y1="93.54" x2="107.67" y2="169.85" stroke="#ef4444" stroke-width="1" stroke-linecap="round" /><rect x="105.17" y="101.88" width="5.01" height="52.84" rx="1" ry="1" fill="#ef4444" fill-opacity="0.85" /><line x1="114.88" y1="114.67" x2="114.88" y2="148.72" stroke="#22c55e" stroke-width="1" stroke-linecap="round" /><rect x="112.38" y="129.80" width="5.01" height="7.12" rx="1" ry="1" fill="#22c55e" fill-opacity="0.85" /><line x1="122.09" y1="115.56" x2="122.09" y2="140.04" stroke="#22c55e" stroke-width="1" stroke-linecap="round" /><rect x="119.59" y="128.47" width="5.01" height="1.00" rx="1" ry="1" fill="#22c55e" fill-opacity="0.85" /><line x1="129.30" y1="144.60" x2="129.30" y2="181.76" stroke="#ef4444" stroke-width="1" stroke-linecap="round" /><rect x="126.80" y="148.05" width="5.01" height="20.58" rx="1" ry="1" fill="#ef4444" fill-opacity="0.85" /><line x1="136.51" y1="136.48" x2="136.51" y2="157.62" stroke="#ef4444" stroke-width="1" stroke-linecap="round" /><rect x="134.01" y="143.15" width="5.01" height="6.79" rx="1" ry="1" fill="#ef4444" fill-opacity="0.85" /><line x1="143.72" y1="120.90" x2="143.72" y2="168.96" stroke="#ef4444" stroke-width="1" stroke-linecap="round" /><rect x="141.22" y="147.60" width="5.01" height="15.80" rx="1" ry="1" fill="#ef4444" fill-opacity="0.85" /><line x1="150.93" y1="168.07" x2="150.93" y2="215.69" stroke="#ef4444" stroke-width="1" stroke-linecap="round" /><rect x="148.43" y="168.07" width="5.01" height="29.93" rx="1" ry="1" fill="#ef4444" fill-opacity="0.85" /><line x1="158.14" y1="195.78" x2="158.14" y2="273.21" stroke="#ef4444" stroke-width="1" stroke-linecap="round" /><rect x="155.64" y="200.34" width="5.01" height="66.75" rx="1" ry="1" fill="#ef4444" fill-opacity="0.85" /><line x1="165.35" y1="270.43" x2="165.35" y2="320.05" stroke="#ef4444" stroke-width="1" stroke-linecap="round" /><rect x="162.84" y="285.45" width="5.01" height="23.36" rx="1" ry="1" fill="#ef4444" fill-opacity="0.85" /><line x1="172.56" y1="269.98" x2="172.56" y2="343.85" stroke="#22c55e" stroke-width="1" stroke-linecap="round" /><rect x="170.05" y="274.10" width="5.01" height="30.48" rx="1" ry="1" fill="#22c55e" fill-opacity="0.85" /><line x1="179.77" y1="270.20" x2="179.77" y2="318.49" stroke="#ef4444" stroke-width="1" stroke-linecap="round" /><rect x="177.26" y="272.10" width="5.01" height="10.90" rx="1" ry="1" fill="#ef4444" fill-opacity="0.85" /><line x1="186.98" y1="306.58" x2="186.98" y2="341.18" stroke="#ef4444" stroke-width="1" stroke-linecap="round" /><rect x="184.47" y="314.48" width="5.01" height="10.01" rx="1" ry="1" fill="#ef4444" fill-opacity="0.85" /><line x1="194.19" y1="274.43" x2="194.19" y2="321.16" stroke="#22c55e" stroke-width="1" stroke-linecap="round" /><rect x="191.68" y="282.33" width="5.01" height="38.83" rx="1" ry="1" fill="#22c55e" fill-opacity="0.85" /><line x1="201.40" y1="312.37" x2="201.40" y2="379.68" stroke="#ef4444" stroke-width="1" stroke-linecap="round" /><rect x="198.89" y="314.48" width="5.01" height="57.52" rx="1" ry="1" fill="#ef4444" fill-opacity="0.85" /><line x1="208.60" y1="328.83" x2="208.60" y2="376.78" stroke="#ef4444" stroke-width="1" stroke-linecap="round" /><rect x="206.10" y="339.85" width="5.01" height="1.00" rx="1" ry="1" fill="#ef4444" fill-opacity="0.85" /><line x1="215.81" y1="287.78" x2="215.81" y2="322.94" stroke="#22c55e" stroke-width="1" stroke-linecap="round" /><rect x="213.31" y="302.13" width="5.01" height="17.91" rx="1" ry="1" fill="#22c55e" fill-opacity="0.85" /><line x1="223.02" y1="263.31" x2="223.02" y2="341.07" stroke="#22c55e" stroke-width="1" stroke-linecap="round" /><rect x="220.52" y="273.43" width="5.01" height="32.15" rx="1" ry="1" fill="#22c55e" fill-opacity="0.85" /><line x1="230.23" y1="292.34" x2="230.23" y2="369.89" stroke="#ef4444" stroke-width="1" stroke-linecap="round" /><rect x="227.73" y="294.46" width="5.01" height="67.86" rx="1" ry="1" fill="#ef4444" fill-opacity="0.85" /><line x1="237.44" y1="234.60" x2="237.44" y2="321.71" stroke="#22c55e" stroke-width="1" stroke-linecap="round" /><rect x="234.94" y="267.76" width="5.01" height="49.62" rx="1" ry="1" fill="#22c55e" fill-opacity="0.85" /><line x1="244.65" y1="260.08" x2="244.65" y2="329.61" stroke="#22c55e" stroke-width="1" stroke-linecap="round" /><rect x="242.15" y="269.65" width="5.01" height="38.38" rx="1" ry="1" fill="#22c55e" fill-opacity="0.85" /><line x1="251.86" y1="240.61" x2="251.86" y2="296.68" stroke="#22c55e" stroke-width="1" stroke-linecap="round" /><rect x="249.36" y="251.40" width="5.01" height="24.14" rx="1" ry="1" fill="#22c55e" fill-opacity="0.85" /><line x1="259.07" y1="232.16" x2="259.07" y2="266.87" stroke="#22c55e" stroke-width="1" stroke-linecap="round" /><rect x="256.57" y="249.07" width="5.01" height="7.68" rx="1" ry="1" fill="#22c55e" fill-opacity="0.85" /><line x1="266.28" y1="184.09" x2="266.28" y2="211.02" stroke="#ef4444" stroke-width="1" stroke-linecap="round" /><rect x="263.78" y="192.10" width="5.01" height="8.34" rx="1" ry="1" fill="#ef4444" fill-opacity="0.85" /><line x1="273.49" y1="185.43" x2="273.49" y2="216.36" stroke="#ef4444" stroke-width="1" stroke-linecap="round" /><rect x="270.98" y="200.45" width="5.01" height="8.79" rx="1" ry="1" fill="#ef4444" fill-opacity="0.85" /><line x1="280.70" y1="178.75" x2="280.70" y2="200.34" stroke="#22c55e" stroke-width="1" stroke-linecap="round" /><rect x="278.19" y="191.99" width="5.01" height="4.90" rx="1" ry="1" fill="#22c55e" fill-opacity="0.85" /><line x1="287.91" y1="182.31" x2="287.91" y2="231.04" stroke="#22c55e" stroke-width="1" stroke-linecap="round" /><rect x="285.40" y="198.67" width="5.01" height="26.70" rx="1" ry="1" fill="#22c55e" fill-opacity="0.85" /><line x1="295.12" y1="112.00" x2="295.12" y2="156.84" stroke="#ef4444" stroke-width="1" stroke-linecap="round" /><rect x="292.61" y="136.48" width="5.01" height="14.57" rx="1" ry="1" fill="#ef4444" fill-opacity="0.85" /><line x1="302.33" y1="110.78" x2="302.33" y2="140.26" stroke="#22c55e" stroke-width="1" stroke-linecap="round" /><rect x="299.82" y="117.01" width="5.01" height="8.46" rx="1" ry="1" fill="#22c55e" fill-opacity="0.85" /><line x1="309.53" y1="97.87" x2="309.53" y2="133.14" stroke="#22c55e" stroke-width="1" stroke-linecap="round" /><rect x="307.03" y="103.99" width="5.01" height="12.46" rx="1" ry="1" fill="#22c55e" fill-opacity="0.85" /><line x1="316.74" y1="105.33" x2="316.74" y2="140.82" stroke="#ef4444" stroke-width="1" stroke-linecap="round" /><rect x="314.24" y="105.33" width="5.01" height="27.59" rx="1" ry="1" fill="#ef4444" fill-opacity="0.85" /><line x1="323.95" y1="109.00" x2="323.95" y2="147.60" stroke="#ef4444" stroke-width="1" stroke-linecap="round" /><rect x="321.45" y="123.13" width="5.01" height="20.36" rx="1" ry="1" fill="#ef4444" fill-opacity="0.85" /><line x1="331.16" y1="123.57" x2="331.16" y2="139.82" stroke="#22c55e" stroke-width="1" stroke-linecap="round" /><rect x="328.66" y="132.14" width="5.01" height="6.56" rx="1" ry="1" fill="#22c55e" fill-opacity="0.85" /><line x1="338.37" y1="123.57" x2="338.37" y2="152.05" stroke="#ef4444" stroke-width="1" stroke-linecap="round" /><rect x="335.87" y="133.25" width="5.01" height="15.58" rx="1" ry="1" fill="#ef4444" fill-opacity="0.85" /><line x1="345.58" y1="136.59" x2="345.58" y2="175.53" stroke="#ef4444" stroke-width="1" stroke-linecap="round" /><rect x="343.08" y="144.49" width="5.01" height="22.03" rx="1" ry="1" fill="#ef4444" fill-opacity="0.85" /><line x1="352.79" y1="120.90" x2="352.79" y2="156.50" stroke="#22c55e" stroke-width="1" stroke-linecap="round" /><rect x="350.29" y="126.80" width="5.01" height="27.92" rx="1" ry="1" fill="#22c55e" fill-opacity="0.85" /><line x1="360.00" y1="106.55" x2="360.00" y2="138.70" stroke="#ef4444" stroke-width="1" stroke-linecap="round" /><rect x="357.50" y="120.90" width="5.01" height="12.46" rx="1" ry="1" fill="#ef4444" fill-opacity="0.85" /><line x1="367.21" y1="117.79" x2="367.21" y2="151.50" stroke="#ef4444" stroke-width="1" stroke-linecap="round" /><rect x="364.71" y="128.36" width="5.01" height="7.57" rx="1" ry="1" fill="#ef4444" fill-opacity="0.85" /><line x1="374.42" y1="135.92" x2="374.42" y2="187.54" stroke="#ef4444" stroke-width="1" stroke-linecap="round" /><rect x="371.91" y="140.15" width="5.01" height="41.16" rx="1" ry="1" fill="#ef4444" fill-opacity="0.85" /><line x1="381.63" y1="181.31" x2="381.63" y2="181.31" stroke="#22c55e" stroke-width="1" stroke-linecap="round" /><rect x="379.12" y="181.31" width="5.01" height="1.00" rx="1" ry="1" fill="#22c55e" fill-opacity="0.85" /><line x1="388.84" y1="159.84" x2="388.84" y2="196.00" stroke="#ef4444" stroke-width="1" stroke-linecap="round" /><rect x="386.33" y="169.85" width="5.01" height="5.79" rx="1" ry="1" fill="#ef4444" fill-opacity="0.85" /><line x1="396.05" y1="173.64" x2="396.05" y2="191.55" stroke="#22c55e" stroke-width="1" stroke-linecap="round" /><rect x="393.54" y="187.54" width="5.01" height="1.00" rx="1" ry="1" fill="#22c55e" fill-opacity="0.85" /><line x1="403.26" y1="139.82" x2="403.26" y2="168.30" stroke="#22c55e" stroke-width="1" stroke-linecap="round" /><rect x="400.75" y="146.49" width="5.01" height="14.46" rx="1" ry="1" fill="#22c55e" fill-opacity="0.85" /><line x1="410.47" y1="71.95" x2="410.47" y2="134.25" stroke="#22c55e" stroke-width="1" stroke-linecap="round" /><rect x="407.96" y="106.22" width="5.01" height="25.81" rx="1" ry="1" fill="#22c55e" fill-opacity="0.85" /><line x1="417.67" y1="91.98" x2="417.67" y2="127.36" stroke="#ef4444" stroke-width="1" stroke-linecap="round" /><rect x="415.17" y="103.10" width="5.01" height="1.78" rx="1" ry="1" fill="#ef4444" fill-opacity="0.85" /><line x1="424.88" y1="83.08" x2="424.88" y2="116.23" stroke="#22c55e" stroke-width="1" stroke-linecap="round" /><rect x="422.38" y="96.65" width="5.01" height="8.68" rx="1" ry="1" fill="#22c55e" fill-opacity="0.85" /><line x1="432.09" y1="53.48" x2="432.09" y2="124.57" stroke="#ef4444" stroke-width="1" stroke-linecap="round" /><rect x="429.59" y="71.95" width="5.01" height="44.06" rx="1" ry="1" fill="#ef4444" fill-opacity="0.85" /><line x1="439.30" y1="36.35" x2="439.30" y2="87.53" stroke="#22c55e" stroke-width="1" stroke-linecap="round" /><rect x="436.80" y="46.81" width="5.01" height="34.04" rx="1" ry="1" fill="#22c55e" fill-opacity="0.85" /><line x1="446.51" y1="-3.92" x2="446.51" y2="38.24" stroke="#22c55e" stroke-width="1" stroke-linecap="round" /><rect x="444.01" y="22.00" width="5.01" height="12.13" rx="1" ry="1" fill="#22c55e" fill-opacity="0.85" /><line x1="453.72" y1="40.80" x2="453.72" y2="107.55" stroke="#ef4444" stroke-width="1" stroke-linecap="round" /><rect x="451.22" y="40.80" width="5.01" height="61.75" rx="1" ry="1" fill="#ef4444" fill-opacity="0.85" /><line x1="460.93" y1="54.37" x2="460.93" y2="93.20" stroke="#22c55e" stroke-width="1" stroke-linecap="round" /><rect x="458.43" y="78.29" width="5.01" height="2.56" rx="1" ry="1" fill="#22c55e" fill-opacity="0.85" /><line x1="468.14" y1="65.28" x2="468.14" y2="107.55" stroke="#ef4444" stroke-width="1" stroke-linecap="round" /><rect x="465.64" y="67.39" width="5.01" height="36.82" rx="1" ry="1" fill="#ef4444" fill-opacity="0.85" /><line x1="475.35" y1="121.57" x2="475.35" y2="155.39" stroke="#ef4444" stroke-width="1" stroke-linecap="round" /><rect x="472.84" y="121.57" width="5.01" height="15.80" rx="1" ry="1" fill="#ef4444" fill-opacity="0.85" /><line x1="482.56" y1="110.33" x2="482.56" y2="147.38" stroke="#ef4444" stroke-width="1" stroke-linecap="round" /><rect x="480.05" y="118.68" width="5.01" height="24.14" rx="1" ry="1" fill="#ef4444" fill-opacity="0.85" /><line x1="489.77" y1="125.35" x2="489.77" y2="158.73" stroke="#ef4444" stroke-width="1" stroke-linecap="round" /><rect x="487.26" y="132.03" width="5.01" height="25.03" rx="1" ry="1" fill="#ef4444" fill-opacity="0.85" /><line x1="496.98" y1="136.48" x2="496.98" y2="165.18" stroke="#ef4444" stroke-width="1" stroke-linecap="round" /><rect x="494.47" y="136.92" width="5.01" height="20.58" rx="1" ry="1" fill="#ef4444" fill-opacity="0.85" /><line x1="504.19" y1="114.56" x2="504.19" y2="167.63" stroke="#22c55e" stroke-width="1" stroke-linecap="round" /><rect x="501.68" y="134.25" width="5.01" height="22.25" rx="1" ry="1" fill="#22c55e" fill-opacity="0.85" /><line x1="511.40" y1="116.45" x2="511.40" y2="138.04" stroke="#ef4444" stroke-width="1" stroke-linecap="round" /><rect x="508.89" y="129.80" width="5.01" height="5.90" rx="1" ry="1" fill="#ef4444" fill-opacity="0.85" /><line x1="518.60" y1="135.70" x2="518.60" y2="135.70" stroke="#22c55e" stroke-width="1" stroke-linecap="round" /><rect x="516.10" y="135.70" width="5.01" height="1.00" rx="1" ry="1" fill="#22c55e" fill-opacity="0.85" /><line x1="525.81" y1="115.01" x2="525.81" y2="196.55" stroke="#ef4444" stroke-width="1" stroke-linecap="round" /><rect x="523.31" y="129.80" width="5.01" height="42.94" rx="1" ry="1" fill="#ef4444" fill-opacity="0.85" /><line x1="533.02" y1="147.60" x2="533.02" y2="180.98" stroke="#ef4444" stroke-width="1" stroke-linecap="round" /><rect x="530.52" y="160.95" width="5.01" height="9.01" rx="1" ry="1" fill="#ef4444" fill-opacity="0.85" /><line x1="540.23" y1="143.93" x2="540.23" y2="167.63" stroke="#22c55e" stroke-width="1" stroke-linecap="round" /><rect x="537.73" y="156.06" width="5.01" height="8.12" rx="1" ry="1" fill="#22c55e" fill-opacity="0.85" /><line x1="547.44" y1="144.27" x2="547.44" y2="180.87" stroke="#ef4444" stroke-width="1" stroke-linecap="round" /><rect x="544.94" y="147.60" width="5.01" height="10.24" rx="1" ry="1" fill="#ef4444" fill-opacity="0.85" /><line x1="554.65" y1="158.17" x2="554.65" y2="175.42" stroke="#22c55e" stroke-width="1" stroke-linecap="round" /><rect x="552.15" y="166.74" width="5.01" height="1.00" rx="1" ry="1" fill="#22c55e" fill-opacity="0.85" /><line x1="561.86" y1="167.41" x2="561.86" y2="208.24" stroke="#ef4444" stroke-width="1" stroke-linecap="round" /><rect x="559.36" y="174.30" width="5.01" height="25.92" rx="1" ry="1" fill="#ef4444" fill-opacity="0.85" /><line x1="569.07" y1="210.68" x2="569.07" y2="251.85" stroke="#ef4444" stroke-width="1" stroke-linecap="round" /><rect x="566.57" y="232.16" width="5.01" height="13.02" rx="1" ry="1" fill="#ef4444" fill-opacity="0.85" /><line x1="576.28" y1="209.46" x2="576.28" y2="238.27" stroke="#22c55e" stroke-width="1" stroke-linecap="round" /><rect x="573.78" y="215.25" width="5.01" height="22.03" rx="1" ry="1" fill="#22c55e" fill-opacity="0.85" /><line x1="583.49" y1="211.02" x2="583.49" y2="245.51" stroke="#ef4444" stroke-width="1" stroke-linecap="round" /><rect x="580.98" y="212.13" width="5.01" height="22.92" rx="1" ry="1" fill="#ef4444" fill-opacity="0.85" /><line x1="590.70" y1="237.05" x2="590.70" y2="264.42" stroke="#ef4444" stroke-width="1" stroke-linecap="round" /><rect x="588.19" y="252.18" width="5.01" height="8.34" rx="1" ry="1" fill="#ef4444" fill-opacity="0.85" /><line x1="597.91" y1="221.36" x2="597.91" y2="242.17" stroke="#ef4444" stroke-width="1" stroke-linecap="round" /><rect x="595.40" y="230.04" width="5.01" height="6.56" rx="1" ry="1" fill="#ef4444" fill-opacity="0.85" /><line x1="605.12" y1="187.21" x2="605.12" y2="227.04" stroke="#ef4444" stroke-width="1" stroke-linecap="round" /><rect x="602.61" y="209.91" width="5.01" height="13.13" rx="1" ry="1" fill="#ef4444" fill-opacity="0.85" /><line x1="612.33" y1="217.69" x2="612.33" y2="243.28" stroke="#ef4444" stroke-width="1" stroke-linecap="round" /><rect x="609.82" y="217.69" width="5.01" height="15.02" rx="1" ry="1" fill="#ef4444" fill-opacity="0.85" /><line x1="619.53" y1="208.79" x2="619.53" y2="241.61" stroke="#22c55e" stroke-width="1" stroke-linecap="round" /><rect x="617.03" y="225.04" width="5.01" height="4.90" rx="1" ry="1" fill="#22c55e" fill-opacity="0.85" /><line x1="626.74" y1="219.70" x2="626.74" y2="238.83" stroke="#ef4444" stroke-width="1" stroke-linecap="round" /><rect x="624.24" y="225.59" width="5.01" height="11.68" rx="1" ry="1" fill="#ef4444" fill-opacity="0.85" /><line x1="633.95" y1="229.93" x2="633.95" y2="256.85" stroke="#22c55e" stroke-width="1" stroke-linecap="round" /><rect x="631.45" y="234.05" width="5.01" height="9.57" rx="1" ry="1" fill="#22c55e" fill-opacity="0.85" /><line x1="641.16" y1="225.93" x2="641.16" y2="242.72" stroke="#22c55e" stroke-width="1" stroke-linecap="round" /><rect x="638.66" y="234.94" width="5.01" height="1.67" rx="1" ry="1" fill="#22c55e" fill-opacity="0.85" /><line x1="648.37" y1="233.94" x2="648.37" y2="264.42" stroke="#ef4444" stroke-width="1" stroke-linecap="round" /><rect x="645.87" y="238.72" width="5.01" height="19.58" rx="1" ry="1" fill="#ef4444" fill-opacity="0.85" /><line x1="655.58" y1="245.51" x2="655.58" y2="291.90" stroke="#22c55e" stroke-width="1" stroke-linecap="round" /><rect x="653.08" y="253.85" width="5.01" height="16.13" rx="1" ry="1" fill="#22c55e" fill-opacity="0.85" /><line x1="662.79" y1="258.86" x2="662.79" y2="282.89" stroke="#ef4444" stroke-width="1" stroke-linecap="round" /><rect x="660.29" y="269.98" width="5.01" height="8.01" rx="1" ry="1" fill="#ef4444" fill-opacity="0.85" /><line x1="670.00" y1="277.99" x2="670.00" y2="277.99" stroke="#22c55e" stroke-width="1" stroke-linecap="round" /><rect x="667.50" y="277.99" width="5.01" height="1.00" rx="1" ry="1" fill="#22c55e" fill-opacity="0.85" /><line x1="677.21" y1="256.63" x2="677.21" y2="291.01" stroke="#22c55e" stroke-width="1" stroke-linecap="round" /><rect x="674.71" y="267.31" width="5.01" height="9.12" rx="1" ry="1" fill="#22c55e" fill-opacity="0.85" /><line x1="684.42" y1="247.73" x2="684.42" y2="272.87" stroke="#22c55e" stroke-width="1" stroke-linecap="round" /><rect x="681.91" y="256.41" width="5.01" height="9.01" rx="1" ry="1" fill="#22c55e" fill-opacity="0.85" /><line x1="691.63" y1="247.73" x2="691.63" y2="281.11" stroke="#ef4444" stroke-width="1" stroke-linecap="round" /><rect x="689.12" y="256.41" width="5.01" height="23.36" rx="1" ry="1" fill="#ef4444" fill-opacity="0.85" /><line x1="698.84" y1="257.97" x2="698.84" y2="276.43" stroke="#ef4444" stroke-width="1" stroke-linecap="round" /><rect x="696.33" y="269.98" width="5.01" height="1.00" rx="1" ry="1" fill="#ef4444" fill-opacity="0.85" /><line x1="706.05" y1="232.16" x2="706.05" y2="263.31" stroke="#ef4444" stroke-width="1" stroke-linecap="round" /><rect x="703.54" y="247.73" width="5.01" height="12.91" rx="1" ry="1" fill="#ef4444" fill-opacity="0.85" /><line x1="713.26" y1="255.63" x2="713.26" y2="274.32" stroke="#ef4444" stroke-width="1" stroke-linecap="round" /><rect x="710.75" y="256.63" width="5.01" height="14.24" rx="1" ry="1" fill="#ef4444" fill-opacity="0.85" /><line x1="720.47" y1="259.64" x2="720.47" y2="275.66" stroke="#22c55e" stroke-width="1" stroke-linecap="round" /><rect x="717.96" y="268.98" width="5.01" height="3.00" rx="1" ry="1" fill="#22c55e" fill-opacity="0.85" /><line x1="727.67" y1="259.08" x2="727.67" y2="295.12" stroke="#ef4444" stroke-width="1" stroke-linecap="round" /><rect x="725.17" y="281.11" width="5.01" height="6.12" rx="1" ry="1" fill="#ef4444" fill-opacity="0.85" /><line x1="734.88" y1="281.66" x2="734.88" y2="295.79" stroke="#ef4444" stroke-width="1" stroke-linecap="round" /><rect x="732.38" y="286.67" width="5.01" height="2.34" rx="1" ry="1" fill="#ef4444" fill-opacity="0.85" /><line x1="742.09" y1="232.60" x2="742.09" y2="271.98" stroke="#22c55e" stroke-width="1" stroke-linecap="round" /><rect x="739.59" y="261.86" width="5.01" height="8.12" rx="1" ry="1" fill="#22c55e" fill-opacity="0.85" /><line x1="749.30" y1="258.86" x2="749.30" y2="281.11" stroke="#22c55e" stroke-width="1" stroke-linecap="round" /><rect x="746.80" y="263.42" width="5.01" height="15.46" rx="1" ry="1" fill="#22c55e" fill-opacity="0.85" /><line x1="756.51" y1="241.83" x2="756.51" y2="283.33" stroke="#ef4444" stroke-width="1" stroke-linecap="round" /><rect x="754.01" y="269.98" width="5.01" height="7.45" rx="1" ry="1" fill="#ef4444" fill-opacity="0.85" /><line x1="763.72" y1="261.97" x2="763.72" y2="280.66" stroke="#ef4444" stroke-width="1" stroke-linecap="round" /><rect x="761.22" y="272.21" width="5.01" height="6.34" rx="1" ry="1" fill="#ef4444" fill-opacity="0.85" /><line x1="770.93" y1="268.09" x2="770.93" y2="296.35" stroke="#ef4444" stroke-width="1" stroke-linecap="round" /><rect x="768.43" y="269.98" width="5.01" height="23.70" rx="1" ry="1" fill="#ef4444" fill-opacity="0.85" /><line x1="778.14" y1="287.89" x2="778.14" y2="312.26" stroke="#22c55e" stroke-width="1" stroke-linecap="round" /><rect x="775.64" y="289.67" width="5.01" height="7.01" rx="1" ry="1" fill="#22c55e" fill-opacity="0.85" /><line x1="785.35" y1="278.33" x2="785.35" y2="302.69" stroke="#ef4444" stroke-width="1" stroke-linecap="round" /><rect x="782.84" y="292.34" width="5.01" height="6.45" rx="1" ry="1" fill="#ef4444" fill-opacity="0.85" /><line x1="792.56" y1="271.76" x2="792.56" y2="298.91" stroke="#22c55e" stroke-width="1" stroke-linecap="round" /><rect x="790.05" y="275.66" width="5.01" height="12.79" rx="1" ry="1" fill="#22c55e" fill-opacity="0.85" /><line x1="799.77" y1="257.08" x2="799.77" y2="285.56" stroke="#ef4444" stroke-width="1" stroke-linecap="round" /><rect x="797.26" y="259.52" width="5.01" height="23.25" rx="1" ry="1" fill="#ef4444" fill-opacity="0.85" /><line x1="806.98" y1="261.86" x2="806.98" y2="287.78" stroke="#ef4444" stroke-width="1" stroke-linecap="round" /><rect x="804.47" y="274.65" width="5.01" height="2.45" rx="1" ry="1" fill="#ef4444" fill-opacity="0.85" /><line x1="814.19" y1="290.01" x2="814.19" y2="307.36" stroke="#ef4444" stroke-width="1" stroke-linecap="round" /><rect x="811.68" y="290.01" width="5.01" height="6.34" rx="1" ry="1" fill="#ef4444" fill-opacity="0.85" /><line x1="821.40" y1="282.22" x2="821.40" y2="301.13" stroke="#ef4444" stroke-width="1" stroke-linecap="round" /><rect x="818.89" y="290.12" width="5.01" height="7.90" rx="1" ry="1" fill="#ef4444" fill-opacity="0.85" /><line x1="828.60" y1="295.57" x2="828.60" y2="321.27" stroke="#ef4444" stroke-width="1" stroke-linecap="round" /><rect x="826.10" y="296.68" width="5.01" height="21.92" rx="1" ry="1" fill="#ef4444" fill-opacity="0.85" /><line x1="835.81" y1="291.34" x2="835.81" y2="327.83" stroke="#22c55e" stroke-width="1" stroke-linecap="round" /><rect x="833.31" y="295.68" width="5.01" height="18.91" rx="1" ry="1" fill="#22c55e" fill-opacity="0.85" /><line x1="843.02" y1="281.44" x2="843.02" y2="308.92" stroke="#ef4444" stroke-width="1" stroke-linecap="round" /><rect x="840.52" y="300.58" width="5.01" height="2.23" rx="1" ry="1" fill="#ef4444" fill-opacity="0.85" /><line x1="850.23" y1="261.08" x2="850.23" y2="297.68" stroke="#22c55e" stroke-width="1" stroke-linecap="round" /><rect x="847.73" y="277.55" width="5.01" height="14.24" rx="1" ry="1" fill="#22c55e" fill-opacity="0.85" /><line x1="857.44" y1="262.19" x2="857.44" y2="278.88" stroke="#22c55e" stroke-width="1" stroke-linecap="round" /><rect x="854.94" y="269.87" width="5.01" height="1.00" rx="1" ry="1" fill="#22c55e" fill-opacity="0.85" /><line x1="864.65" y1="249.29" x2="864.65" y2="281.00" stroke="#ef4444" stroke-width="1" stroke-linecap="round" /><rect x="862.15" y="269.87" width="5.01" height="6.01" rx="1" ry="1" fill="#ef4444" fill-opacity="0.85" /><line x1="871.86" y1="170.74" x2="871.86" y2="269.76" stroke="#22c55e" stroke-width="1" stroke-linecap="round" /><rect x="869.36" y="183.65" width="5.01" height="83.66" rx="1" ry="1" fill="#22c55e" fill-opacity="0.85" /><line x1="879.07" y1="145.38" x2="879.07" y2="202.01" stroke="#22c55e" stroke-width="1" stroke-linecap="round" /><rect x="876.57" y="156.62" width="5.01" height="7.79" rx="1" ry="1" fill="#22c55e" fill-opacity="0.85" /><line x1="886.28" y1="152.05" x2="886.28" y2="187.43" stroke="#ef4444" stroke-width="1" stroke-linecap="round" /><rect x="883.78" y="161.51" width="5.01" height="17.02" rx="1" ry="1" fill="#ef4444" fill-opacity="0.85" /><line x1="893.49" y1="143.15" x2="893.49" y2="209.91" stroke="#ef4444" stroke-width="1" stroke-linecap="round" /><rect x="890.98" y="174.42" width="5.01" height="26.03" rx="1" ry="1" fill="#ef4444" fill-opacity="0.85" /><line x1="900.70" y1="172.52" x2="900.70" y2="197.22" stroke="#22c55e" stroke-width="1" stroke-linecap="round" /><rect x="898.19" y="184.76" width="5.01" height="5.12" rx="1" ry="1" fill="#22c55e" fill-opacity="0.85" /><line x1="907.91" y1="103.33" x2="907.91" y2="192.99" stroke="#22c55e" stroke-width="1" stroke-linecap="round" /><rect x="905.40" y="152.72" width="5.01" height="37.49" rx="1" ry="1" fill="#22c55e" fill-opacity="0.85" /><line x1="915.12" y1="101.99" x2="915.12" y2="165.40" stroke="#ef4444" stroke-width="1" stroke-linecap="round" /><rect x="912.61" y="149.83" width="5.01" height="10.12" rx="1" ry="1" fill="#ef4444" fill-opacity="0.85" /><line x1="922.33" y1="154.95" x2="922.33" y2="225.48" stroke="#ef4444" stroke-width="1" stroke-linecap="round" /><rect x="919.82" y="155.39" width="5.01" height="38.83" rx="1" ry="1" fill="#ef4444" fill-opacity="0.85" /><line x1="929.53" y1="92.20" x2="929.53" y2="182.98" stroke="#22c55e" stroke-width="1" stroke-linecap="round" /><rect x="927.03" y="97.21" width="5.01" height="83.77" rx="1" ry="1" fill="#22c55e" fill-opacity="0.85" /><line x1="936.74" y1="88.20" x2="936.74" y2="135.25" stroke="#ef4444" stroke-width="1" stroke-linecap="round" /><rect x="934.24" y="106.22" width="5.01" height="5.01" rx="1" ry="1" fill="#ef4444" fill-opacity="0.85" /><line x1="943.95" y1="105.33" x2="943.95" y2="140.93" stroke="#ef4444" stroke-width="1" stroke-linecap="round" /><rect x="941.45" y="125.35" width="5.01" height="11.46" rx="1" ry="1" fill="#ef4444" fill-opacity="0.85" /><line x1="951.16" y1="92.65" x2="951.16" y2="139.59" stroke="#ef4444" stroke-width="1" stroke-linecap="round" /><rect x="948.66" y="114.23" width="5.01" height="10.90" rx="1" ry="1" fill="#ef4444" fill-opacity="0.85" /><line x1="958.37" y1="77.51" x2="958.37" y2="122.68" stroke="#22c55e" stroke-width="1" stroke-linecap="round" /><rect x="955.87" y="97.10" width="5.01" height="21.69" rx="1" ry="1" fill="#22c55e" fill-opacity="0.85" /><line x1="965.58" y1="65.83" x2="965.58" y2="110.45" stroke="#ef4444" stroke-width="1" stroke-linecap="round" /><rect x="963.08" y="89.75" width="5.01" height="4.12" rx="1" ry="1" fill="#ef4444" fill-opacity="0.85" /><line x1="972.79" y1="143.49" x2="972.79" y2="193.55" stroke="#ef4444" stroke-width="1" stroke-linecap="round" /><rect x="970.29" y="165.40" width="5.01" height="20.80" rx="1" ry="1" fill="#ef4444" fill-opacity="0.85" /><line x1="980.00" y1="119.57" x2="980.00" y2="200.56" stroke="#22c55e" stroke-width="1" stroke-linecap="round" /><rect x="977.50" y="134.14" width="5.01" height="64.64" rx="1" ry="1" fill="#22c55e" fill-opacity="0.85" /></g>
  
  

  <circle cx="980.00" cy="134.14" r="4" fill="#e5e7eb" />
  <line x1="980.00" y1="134.14" x2="980" y2="134.14" stroke="#e5e7eb" stroke-opacity="0.25" />

  <text x="50" y="402" fill="#9ca3af" font-family="system-ui, -apple-system, sans-serif" font-size="12">Candles</text>
  <text x="120" y="402" fill="#22c55e" font-family="system-ui, -apple-system, sans-serif" font-size="12">■</text>
  <text x="134" y="402" fill="#ef4444" font-family="system-ui, -apple-system, sans-serif" font-size="12">■</text>
  <text x="120" y="402" fill="#9ca3af" font-family="system-ui, -apple-system, sans-serif" font-size="12">SMA20</text>
  <text x="175" y="402" fill="#22c55e" font-family="system-ui, -apple-system, sans-serif" font-size="12">▭▭</text>
  <text x="210" y="402" fill="#9ca3af" font-family="system-ui, -apple-system, sans-serif" font-size="12">SMA50</text>
  <text x="265" y="402" fill="#f59e0b" font-family="system-ui, -apple-system, sans-serif" font-size="12">▭▭</text>
</svg>
