<svg xmlns="http://www.w3.org/2000/svg" width="1000" height="420" viewBox="0 0 1000 420">
  <defs>
    <linearGradient id="bg" x1="0" y1="0" x2="0" y2="1">
      <stop offset="0%" stop-color="#0b1220" />
      <stop offset="100%" stop-color="#0b1220" />
    </linearGradient>
  </defs>
  <rect x="0" y="0" width="1000" height="420" fill="url(#bg)" />
  <text x="50" y="18" fill="#e5e7eb" font-family="system-ui, -apple-system, sans-serif" font-size="14" font-weight="700">MSPL — EOD (cached)</text>
  <text x="50" y="36" fill="#9ca3af" font-family="system-ui, -apple-system, sans-serif" font-size="12">2026-08-26 close 34.64 | range 26.45–44.75</text>

  <g><line x1="50" y1="22.00" x2="980" y2="22.00" stroke="#1f2937" stroke-opacity="0.25" /><line x1="50" y1="109.50" x2="980" y2="109.50" stroke="#1f2937" stroke-opacity="0.25" /><line x1="50" y1="197.00" x2="980" y2="197.00" stroke="#1f2937" stroke-opacity="0.25" /><line x1="50" y1="284.50" x2="980" y2="284.50" stroke="#1f2937" stroke-opacity="0.25" /><line x1="50" y1="372.00" x2="980" y2="372.00" stroke="#1f2937" stroke-opacity="0.25" /></g>
  <rect x="50" y="22" width="930" height="350" fill="none" stroke="#334155" stroke-opacity="0.7" />

  <g><line x1="50.00" y1="233.53" x2="50.00" y2="267.57" stroke="#22c55e" stroke-width="1" stroke-linecap="round" /><rect x="47.50" y="255.52" width="5.01" height="4.78" rx="1" ry="1" fill="#22c55e" fill-opacity="0.85" /><line x1="57.21" y1="247.11" x2="57.21" y2="278.86" stroke="#ef4444" stroke-width="1" stroke-linecap="round" /><rect x="54.71" y="258.20" width="5.01" height="2.30" rx="1" ry="1" fill="#ef4444" fill-opacity="0.85" /><line x1="64.42" y1="248.64" x2="64.42" y2="275.03" stroke="#ef4444" stroke-width="1" stroke-linecap="round" /><rect x="61.91" y="258.20" width="5.01" height="13.20" rx="1" ry="1" fill="#ef4444" fill-opacity="0.85" /><line x1="71.63" y1="251.32" x2="71.63" y2="277.33" stroke="#ef4444" stroke-width="1" stroke-linecap="round" /><rect x="69.12" y="267.77" width="5.01" height="6.50" rx="1" ry="1" fill="#ef4444" fill-opacity="0.85" /><line x1="78.84" y1="265.09" x2="78.84" y2="281.15" stroke="#ef4444" stroke-width="1" stroke-linecap="round" /><rect x="76.33" y="271.59" width="5.01" height="1.53" rx="1" ry="1" fill="#ef4444" fill-opacity="0.85" /><line x1="86.05" y1="256.29" x2="86.05" y2="279.24" stroke="#ef4444" stroke-width="1" stroke-linecap="round" /><rect x="83.54" y="268.15" width="5.01" height="7.84" rx="1" ry="1" fill="#ef4444" fill-opacity="0.85" /><line x1="93.26" y1="236.78" x2="93.26" y2="280.58" stroke="#22c55e" stroke-width="1" stroke-linecap="round" /><rect x="90.75" y="264.51" width="5.01" height="16.07" rx="1" ry="1" fill="#22c55e" fill-opacity="0.85" /><line x1="100.47" y1="259.54" x2="100.47" y2="275.42" stroke="#ef4444" stroke-width="1" stroke-linecap="round" /><rect x="97.96" y="265.85" width="5.01" height="4.21" rx="1" ry="1" fill="#ef4444" fill-opacity="0.85" /><line x1="107.67" y1="271.78" x2="107.67" y2="297.22" stroke="#22c55e" stroke-width="1" stroke-linecap="round" /><rect x="105.17" y="279.05" width="5.01" height="14.54" rx="1" ry="1" fill="#22c55e" fill-opacity="0.85" /><line x1="114.88" y1="266.81" x2="114.88" y2="297.41" stroke="#22c55e" stroke-width="1" stroke-linecap="round" /><rect x="112.38" y="273.69" width="5.01" height="12.24" rx="1" ry="1" fill="#22c55e" fill-opacity="0.85" /><line x1="122.09" y1="268.34" x2="122.09" y2="279.81" stroke="#ef4444" stroke-width="1" stroke-linecap="round" /><rect x="119.59" y="275.42" width="5.01" height="1.72" rx="1" ry="1" fill="#ef4444" fill-opacity="0.85" /><line x1="129.30" y1="265.85" x2="129.30" y2="281.15" stroke="#ef4444" stroke-width="1" stroke-linecap="round" /><rect x="126.80" y="269.68" width="5.01" height="9.18" rx="1" ry="1" fill="#ef4444" fill-opacity="0.85" /><line x1="136.51" y1="271.59" x2="136.51" y2="301.43" stroke="#ef4444" stroke-width="1" stroke-linecap="round" /><rect x="134.01" y="280.20" width="5.01" height="7.84" rx="1" ry="1" fill="#ef4444" fill-opacity="0.85" /><line x1="143.72" y1="264.90" x2="143.72" y2="281.92" stroke="#22c55e" stroke-width="1" stroke-linecap="round" /><rect x="141.22" y="274.08" width="5.01" height="2.10" rx="1" ry="1" fill="#22c55e" fill-opacity="0.85" /><line x1="150.93" y1="253.42" x2="150.93" y2="277.71" stroke="#ef4444" stroke-width="1" stroke-linecap="round" /><rect x="148.43" y="265.85" width="5.01" height="4.02" rx="1" ry="1" fill="#ef4444" fill-opacity="0.85" /><line x1="158.14" y1="258.20" x2="158.14" y2="282.87" stroke="#ef4444" stroke-width="1" stroke-linecap="round" /><rect x="155.64" y="269.87" width="5.01" height="1.53" rx="1" ry="1" fill="#ef4444" fill-opacity="0.85" /><line x1="165.35" y1="267.96" x2="165.35" y2="291.67" stroke="#ef4444" stroke-width="1" stroke-linecap="round" /><rect x="162.84" y="275.42" width="5.01" height="9.18" rx="1" ry="1" fill="#ef4444" fill-opacity="0.85" /><line x1="172.56" y1="283.26" x2="172.56" y2="311.56" stroke="#ef4444" stroke-width="1" stroke-linecap="round" /><rect x="170.05" y="284.60" width="5.01" height="20.66" rx="1" ry="1" fill="#ef4444" fill-opacity="0.85" /><line x1="179.77" y1="286.89" x2="179.77" y2="306.97" stroke="#22c55e" stroke-width="1" stroke-linecap="round" /><rect x="177.26" y="292.44" width="5.01" height="9.37" rx="1" ry="1" fill="#22c55e" fill-opacity="0.85" /><line x1="186.98" y1="278.28" x2="186.98" y2="294.73" stroke="#22c55e" stroke-width="1" stroke-linecap="round" /><rect x="184.47" y="292.44" width="5.01" height="1.00" rx="1" ry="1" fill="#22c55e" fill-opacity="0.85" /><line x1="194.19" y1="288.99" x2="194.19" y2="317.11" stroke="#ef4444" stroke-width="1" stroke-linecap="round" /><rect x="191.68" y="294.54" width="5.01" height="18.55" rx="1" ry="1" fill="#ef4444" fill-opacity="0.85" /><line x1="201.40" y1="298.94" x2="201.40" y2="307.74" stroke="#ef4444" stroke-width="1" stroke-linecap="round" /><rect x="198.89" y="300.28" width="5.01" height="3.06" rx="1" ry="1" fill="#ef4444" fill-opacity="0.85" /><line x1="208.60" y1="304.30" x2="208.60" y2="357.27" stroke="#ef4444" stroke-width="1" stroke-linecap="round" /><rect x="206.10" y="304.30" width="5.01" height="37.10" rx="1" ry="1" fill="#ef4444" fill-opacity="0.85" /><line x1="215.81" y1="309.27" x2="215.81" y2="346.18" stroke="#22c55e" stroke-width="1" stroke-linecap="round" /><rect x="213.31" y="317.11" width="5.01" height="15.68" rx="1" ry="1" fill="#22c55e" fill-opacity="0.85" /><line x1="223.02" y1="300.66" x2="223.02" y2="320.36" stroke="#ef4444" stroke-width="1" stroke-linecap="round" /><rect x="220.52" y="312.71" width="5.01" height="3.83" rx="1" ry="1" fill="#ef4444" fill-opacity="0.85" /><line x1="230.23" y1="300.66" x2="230.23" y2="356.70" stroke="#ef4444" stroke-width="1" stroke-linecap="round" /><rect x="227.73" y="300.66" width="5.01" height="48.58" rx="1" ry="1" fill="#ef4444" fill-opacity="0.85" /><line x1="237.44" y1="355.93" x2="237.44" y2="375.83" stroke="#ef4444" stroke-width="1" stroke-linecap="round" /><rect x="234.94" y="367.22" width="5.01" height="4.78" rx="1" ry="1" fill="#ef4444" fill-opacity="0.85" /><line x1="244.65" y1="321.51" x2="244.65" y2="361.29" stroke="#22c55e" stroke-width="1" stroke-linecap="round" /><rect x="242.15" y="321.51" width="5.01" height="7.65" rx="1" ry="1" fill="#22c55e" fill-opacity="0.85" /><line x1="251.86" y1="266.04" x2="251.86" y2="319.60" stroke="#ef4444" stroke-width="1" stroke-linecap="round" /><rect x="249.36" y="270.06" width="5.01" height="7.65" rx="1" ry="1" fill="#ef4444" fill-opacity="0.85" /><line x1="259.07" y1="228.56" x2="259.07" y2="290.72" stroke="#22c55e" stroke-width="1" stroke-linecap="round" /><rect x="256.57" y="242.52" width="5.01" height="47.81" rx="1" ry="1" fill="#22c55e" fill-opacity="0.85" /><line x1="266.28" y1="228.56" x2="266.28" y2="248.64" stroke="#22c55e" stroke-width="1" stroke-linecap="round" /><rect x="263.78" y="235.06" width="5.01" height="8.22" rx="1" ry="1" fill="#22c55e" fill-opacity="0.85" /><line x1="273.49" y1="189.16" x2="273.49" y2="230.28" stroke="#22c55e" stroke-width="1" stroke-linecap="round" /><rect x="270.98" y="213.26" width="5.01" height="14.54" rx="1" ry="1" fill="#22c55e" fill-opacity="0.85" /><line x1="280.70" y1="189.35" x2="280.70" y2="219.76" stroke="#22c55e" stroke-width="1" stroke-linecap="round" /><rect x="278.19" y="199.10" width="5.01" height="20.66" rx="1" ry="1" fill="#22c55e" fill-opacity="0.85" /><line x1="287.91" y1="186.67" x2="287.91" y2="211.15" stroke="#ef4444" stroke-width="1" stroke-linecap="round" /><rect x="285.40" y="189.35" width="5.01" height="20.85" rx="1" ry="1" fill="#ef4444" fill-opacity="0.85" /><line x1="295.12" y1="197.38" x2="295.12" y2="236.78" stroke="#22c55e" stroke-width="1" stroke-linecap="round" /><rect x="292.61" y="222.44" width="5.01" height="3.06" rx="1" ry="1" fill="#22c55e" fill-opacity="0.85" /><line x1="302.33" y1="194.90" x2="302.33" y2="216.89" stroke="#22c55e" stroke-width="1" stroke-linecap="round" /><rect x="299.82" y="208.86" width="5.01" height="1.00" rx="1" ry="1" fill="#22c55e" fill-opacity="0.85" /><line x1="309.53" y1="183.99" x2="309.53" y2="204.84" stroke="#22c55e" stroke-width="1" stroke-linecap="round" /><rect x="307.03" y="191.84" width="5.01" height="9.95" rx="1" ry="1" fill="#22c55e" fill-opacity="0.85" /><line x1="316.74" y1="182.46" x2="316.74" y2="202.74" stroke="#22c55e" stroke-width="1" stroke-linecap="round" /><rect x="314.24" y="197.77" width="5.01" height="1.00" rx="1" ry="1" fill="#22c55e" fill-opacity="0.85" /><line x1="323.95" y1="186.67" x2="323.95" y2="202.55" stroke="#22c55e" stroke-width="1" stroke-linecap="round" /><rect x="321.45" y="192.22" width="5.01" height="5.55" rx="1" ry="1" fill="#22c55e" fill-opacity="0.85" /><line x1="331.16" y1="183.42" x2="331.16" y2="202.55" stroke="#ef4444" stroke-width="1" stroke-linecap="round" /><rect x="328.66" y="189.73" width="5.01" height="8.22" rx="1" ry="1" fill="#ef4444" fill-opacity="0.85" /><line x1="338.37" y1="189.54" x2="338.37" y2="217.46" stroke="#ef4444" stroke-width="1" stroke-linecap="round" /><rect x="335.87" y="196.04" width="5.01" height="15.11" rx="1" ry="1" fill="#ef4444" fill-opacity="0.85" /><line x1="345.58" y1="195.28" x2="345.58" y2="227.41" stroke="#ef4444" stroke-width="1" stroke-linecap="round" /><rect x="343.08" y="201.21" width="5.01" height="17.60" rx="1" ry="1" fill="#ef4444" fill-opacity="0.85" /><line x1="352.79" y1="194.90" x2="352.79" y2="218.04" stroke="#22c55e" stroke-width="1" stroke-linecap="round" /><rect x="350.29" y="210.39" width="5.01" height="2.10" rx="1" ry="1" fill="#22c55e" fill-opacity="0.85" /><line x1="360.00" y1="192.79" x2="360.00" y2="208.28" stroke="#ef4444" stroke-width="1" stroke-linecap="round" /><rect x="357.50" y="196.43" width="5.01" height="9.37" rx="1" ry="1" fill="#ef4444" fill-opacity="0.85" /><line x1="367.21" y1="187.25" x2="367.21" y2="208.48" stroke="#22c55e" stroke-width="1" stroke-linecap="round" /><rect x="364.71" y="199.68" width="5.01" height="6.89" rx="1" ry="1" fill="#22c55e" fill-opacity="0.85" /><line x1="374.42" y1="191.64" x2="374.42" y2="198.91" stroke="#ef4444" stroke-width="1" stroke-linecap="round" /><rect x="371.91" y="191.64" width="5.01" height="6.12" rx="1" ry="1" fill="#ef4444" fill-opacity="0.85" /><line x1="381.63" y1="192.22" x2="381.63" y2="219.57" stroke="#22c55e" stroke-width="1" stroke-linecap="round" /><rect x="379.12" y="198.72" width="5.01" height="5.55" rx="1" ry="1" fill="#22c55e" fill-opacity="0.85" /><line x1="388.84" y1="164.87" x2="388.84" y2="198.72" stroke="#22c55e" stroke-width="1" stroke-linecap="round" /><rect x="386.33" y="165.44" width="5.01" height="33.28" rx="1" ry="1" fill="#22c55e" fill-opacity="0.85" /><line x1="396.05" y1="154.73" x2="396.05" y2="188.01" stroke="#ef4444" stroke-width="1" stroke-linecap="round" /><rect x="393.54" y="160.66" width="5.01" height="16.07" rx="1" ry="1" fill="#ef4444" fill-opacity="0.85" /><line x1="403.26" y1="142.30" x2="403.26" y2="180.93" stroke="#22c55e" stroke-width="1" stroke-linecap="round" /><rect x="400.75" y="145.93" width="5.01" height="24.29" rx="1" ry="1" fill="#22c55e" fill-opacity="0.85" /><line x1="410.47" y1="109.40" x2="410.47" y2="139.43" stroke="#22c55e" stroke-width="1" stroke-linecap="round" /><rect x="407.96" y="109.40" width="5.01" height="13.01" rx="1" ry="1" fill="#22c55e" fill-opacity="0.85" /><line x1="417.67" y1="71.15" x2="417.67" y2="105.20" stroke="#22c55e" stroke-width="1" stroke-linecap="round" /><rect x="415.17" y="71.15" width="5.01" height="22.57" rx="1" ry="1" fill="#22c55e" fill-opacity="0.85" /><line x1="424.88" y1="51.64" x2="424.88" y2="92.19" stroke="#ef4444" stroke-width="1" stroke-linecap="round" /><rect x="422.38" y="56.04" width="5.01" height="20.27" rx="1" ry="1" fill="#ef4444" fill-opacity="0.85" /><line x1="432.09" y1="55.28" x2="432.09" y2="112.46" stroke="#ef4444" stroke-width="1" stroke-linecap="round" /><rect x="429.59" y="74.60" width="5.01" height="27.16" rx="1" ry="1" fill="#ef4444" fill-opacity="0.85" /><line x1="439.30" y1="63.12" x2="439.30" y2="111.32" stroke="#22c55e" stroke-width="1" stroke-linecap="round" /><rect x="436.80" y="93.72" width="5.01" height="9.56" rx="1" ry="1" fill="#22c55e" fill-opacity="0.85" /><line x1="446.51" y1="63.12" x2="446.51" y2="107.87" stroke="#22c55e" stroke-width="1" stroke-linecap="round" /><rect x="444.01" y="80.52" width="5.01" height="8.22" rx="1" ry="1" fill="#22c55e" fill-opacity="0.85" /><line x1="453.72" y1="73.64" x2="453.72" y2="106.92" stroke="#ef4444" stroke-width="1" stroke-linecap="round" /><rect x="451.22" y="79.95" width="5.01" height="21.99" rx="1" ry="1" fill="#ef4444" fill-opacity="0.85" /><line x1="460.93" y1="105.20" x2="460.93" y2="140.58" stroke="#ef4444" stroke-width="1" stroke-linecap="round" /><rect x="458.43" y="109.40" width="5.01" height="1.00" rx="1" ry="1" fill="#ef4444" fill-opacity="0.85" /><line x1="468.14" y1="78.42" x2="468.14" y2="120.31" stroke="#22c55e" stroke-width="1" stroke-linecap="round" /><rect x="465.64" y="101.75" width="5.01" height="18.55" rx="1" ry="1" fill="#22c55e" fill-opacity="0.85" /><line x1="475.35" y1="78.42" x2="475.35" y2="112.85" stroke="#ef4444" stroke-width="1" stroke-linecap="round" /><rect x="472.84" y="90.85" width="5.01" height="1.72" rx="1" ry="1" fill="#ef4444" fill-opacity="0.85" /><line x1="482.56" y1="53.37" x2="482.56" y2="88.94" stroke="#22c55e" stroke-width="1" stroke-linecap="round" /><rect x="480.05" y="54.13" width="5.01" height="34.81" rx="1" ry="1" fill="#22c55e" fill-opacity="0.85" /><line x1="489.77" y1="36.34" x2="489.77" y2="72.68" stroke="#ef4444" stroke-width="1" stroke-linecap="round" /><rect x="487.26" y="47.82" width="5.01" height="22.57" rx="1" ry="1" fill="#ef4444" fill-opacity="0.85" /><line x1="496.98" y1="51.64" x2="496.98" y2="65.99" stroke="#22c55e" stroke-width="1" stroke-linecap="round" /><rect x="494.47" y="60.44" width="5.01" height="5.55" rx="1" ry="1" fill="#22c55e" fill-opacity="0.85" /><line x1="504.19" y1="36.34" x2="504.19" y2="65.03" stroke="#ef4444" stroke-width="1" stroke-linecap="round" /><rect x="501.68" y="55.47" width="5.01" height="6.69" rx="1" ry="1" fill="#ef4444" fill-opacity="0.85" /><line x1="511.40" y1="44.38" x2="511.40" y2="78.42" stroke="#ef4444" stroke-width="1" stroke-linecap="round" /><rect x="508.89" y="55.47" width="5.01" height="6.31" rx="1" ry="1" fill="#ef4444" fill-opacity="0.85" /><line x1="518.60" y1="61.78" x2="518.60" y2="61.78" stroke="#22c55e" stroke-width="1" stroke-linecap="round" /><rect x="516.10" y="61.78" width="5.01" height="1.00" rx="1" ry="1" fill="#22c55e" fill-opacity="0.85" /><line x1="525.81" y1="40.93" x2="525.81" y2="66.95" stroke="#22c55e" stroke-width="1" stroke-linecap="round" /><rect x="523.31" y="60.83" width="5.01" height="6.12" rx="1" ry="1" fill="#22c55e" fill-opacity="0.85" /><line x1="533.02" y1="20.09" x2="533.02" y2="101.56" stroke="#ef4444" stroke-width="1" stroke-linecap="round" /><rect x="530.52" y="20.09" width="5.01" height="80.14" rx="1" ry="1" fill="#ef4444" fill-opacity="0.85" /><line x1="540.23" y1="61.40" x2="540.23" y2="118.58" stroke="#ef4444" stroke-width="1" stroke-linecap="round" /><rect x="537.73" y="93.91" width="5.01" height="1.00" rx="1" ry="1" fill="#ef4444" fill-opacity="0.85" /><line x1="547.44" y1="78.61" x2="547.44" y2="109.02" stroke="#22c55e" stroke-width="1" stroke-linecap="round" /><rect x="544.94" y="90.85" width="5.01" height="1.72" rx="1" ry="1" fill="#22c55e" fill-opacity="0.85" /><line x1="554.65" y1="70.77" x2="554.65" y2="103.09" stroke="#ef4444" stroke-width="1" stroke-linecap="round" /><rect x="552.15" y="78.61" width="5.01" height="16.26" rx="1" ry="1" fill="#ef4444" fill-opacity="0.85" /><line x1="561.86" y1="66.56" x2="561.86" y2="95.44" stroke="#22c55e" stroke-width="1" stroke-linecap="round" /><rect x="559.36" y="91.81" width="5.01" height="2.10" rx="1" ry="1" fill="#22c55e" fill-opacity="0.85" /><line x1="569.07" y1="76.89" x2="569.07" y2="107.30" stroke="#ef4444" stroke-width="1" stroke-linecap="round" /><rect x="566.57" y="99.46" width="5.01" height="2.68" rx="1" ry="1" fill="#ef4444" fill-opacity="0.85" /><line x1="576.28" y1="87.03" x2="576.28" y2="112.85" stroke="#ef4444" stroke-width="1" stroke-linecap="round" /><rect x="573.78" y="95.63" width="5.01" height="11.86" rx="1" ry="1" fill="#ef4444" fill-opacity="0.85" /><line x1="583.49" y1="84.35" x2="583.49" y2="116.86" stroke="#ef4444" stroke-width="1" stroke-linecap="round" /><rect x="580.98" y="102.52" width="5.01" height="10.14" rx="1" ry="1" fill="#ef4444" fill-opacity="0.85" /><line x1="590.70" y1="93.91" x2="590.70" y2="122.41" stroke="#ef4444" stroke-width="1" stroke-linecap="round" /><rect x="588.19" y="112.46" width="5.01" height="1.00" rx="1" ry="1" fill="#ef4444" fill-opacity="0.85" /><line x1="597.91" y1="75.17" x2="597.91" y2="99.27" stroke="#22c55e" stroke-width="1" stroke-linecap="round" /><rect x="595.40" y="84.73" width="5.01" height="10.90" rx="1" ry="1" fill="#22c55e" fill-opacity="0.85" /><line x1="605.12" y1="57.00" x2="605.12" y2="84.16" stroke="#ef4444" stroke-width="1" stroke-linecap="round" /><rect x="602.61" y="64.65" width="5.01" height="7.84" rx="1" ry="1" fill="#ef4444" fill-opacity="0.85" /><line x1="612.33" y1="32.52" x2="612.33" y2="69.81" stroke="#22c55e" stroke-width="1" stroke-linecap="round" /><rect x="609.82" y="65.42" width="5.01" height="4.40" rx="1" ry="1" fill="#22c55e" fill-opacity="0.85" /><line x1="619.53" y1="58.34" x2="619.53" y2="78.61" stroke="#ef4444" stroke-width="1" stroke-linecap="round" /><rect x="617.03" y="59.68" width="5.01" height="15.30" rx="1" ry="1" fill="#ef4444" fill-opacity="0.85" /><line x1="626.74" y1="53.94" x2="626.74" y2="81.48" stroke="#22c55e" stroke-width="1" stroke-linecap="round" /><rect x="624.24" y="70.58" width="5.01" height="3.83" rx="1" ry="1" fill="#22c55e" fill-opacity="0.85" /><line x1="633.95" y1="30.22" x2="633.95" y2="66.95" stroke="#22c55e" stroke-width="1" stroke-linecap="round" /><rect x="631.45" y="30.22" width="5.01" height="36.72" rx="1" ry="1" fill="#22c55e" fill-opacity="0.85" /><line x1="641.16" y1="-4.20" x2="641.16" y2="42.46" stroke="#ef4444" stroke-width="1" stroke-linecap="round" /><rect x="638.66" y="-4.20" width="5.01" height="26.20" rx="1" ry="1" fill="#ef4444" fill-opacity="0.85" /><line x1="648.37" y1="17.22" x2="648.37" y2="61.21" stroke="#ef4444" stroke-width="1" stroke-linecap="round" /><rect x="645.87" y="17.22" width="5.01" height="36.53" rx="1" ry="1" fill="#ef4444" fill-opacity="0.85" /><line x1="655.58" y1="45.14" x2="655.58" y2="74.60" stroke="#ef4444" stroke-width="1" stroke-linecap="round" /><rect x="653.08" y="51.64" width="5.01" height="20.85" rx="1" ry="1" fill="#ef4444" fill-opacity="0.85" /><line x1="662.79" y1="47.44" x2="662.79" y2="84.16" stroke="#ef4444" stroke-width="1" stroke-linecap="round" /><rect x="660.29" y="62.74" width="5.01" height="13.77" rx="1" ry="1" fill="#ef4444" fill-opacity="0.85" /><line x1="670.00" y1="76.51" x2="670.00" y2="76.51" stroke="#22c55e" stroke-width="1" stroke-linecap="round" /><rect x="667.50" y="76.51" width="5.01" height="1.00" rx="1" ry="1" fill="#22c55e" fill-opacity="0.85" /><line x1="677.21" y1="71.92" x2="677.21" y2="93.53" stroke="#ef4444" stroke-width="1" stroke-linecap="round" /><rect x="674.71" y="80.14" width="5.01" height="8.80" rx="1" ry="1" fill="#ef4444" fill-opacity="0.85" /><line x1="684.42" y1="83.01" x2="684.42" y2="108.83" stroke="#ef4444" stroke-width="1" stroke-linecap="round" /><rect x="681.91" y="89.90" width="5.01" height="10.33" rx="1" ry="1" fill="#ef4444" fill-opacity="0.85" /><line x1="691.63" y1="61.40" x2="691.63" y2="108.83" stroke="#22c55e" stroke-width="1" stroke-linecap="round" /><rect x="689.12" y="62.93" width="5.01" height="45.90" rx="1" ry="1" fill="#22c55e" fill-opacity="0.85" /><line x1="698.84" y1="42.27" x2="698.84" y2="70.77" stroke="#ef4444" stroke-width="1" stroke-linecap="round" /><rect x="696.33" y="55.47" width="5.01" height="7.84" rx="1" ry="1" fill="#ef4444" fill-opacity="0.85" /><line x1="706.05" y1="40.17" x2="706.05" y2="64.84" stroke="#ef4444" stroke-width="1" stroke-linecap="round" /><rect x="703.54" y="57.19" width="5.01" height="1.91" rx="1" ry="1" fill="#ef4444" fill-opacity="0.85" /><line x1="713.26" y1="52.41" x2="713.26" y2="74.60" stroke="#ef4444" stroke-width="1" stroke-linecap="round" /><rect x="710.75" y="59.10" width="5.01" height="10.33" rx="1" ry="1" fill="#ef4444" fill-opacity="0.85" /><line x1="720.47" y1="67.14" x2="720.47" y2="93.34" stroke="#ef4444" stroke-width="1" stroke-linecap="round" /><rect x="717.96" y="67.14" width="5.01" height="23.33" rx="1" ry="1" fill="#ef4444" fill-opacity="0.85" /><line x1="727.67" y1="82.05" x2="727.67" y2="110.17" stroke="#ef4444" stroke-width="1" stroke-linecap="round" /><rect x="725.17" y="103.28" width="5.01" height="2.30" rx="1" ry="1" fill="#ef4444" fill-opacity="0.85" /><line x1="734.88" y1="90.47" x2="734.88" y2="131.40" stroke="#ef4444" stroke-width="1" stroke-linecap="round" /><rect x="732.38" y="99.46" width="5.01" height="26.39" rx="1" ry="1" fill="#ef4444" fill-opacity="0.85" /><line x1="742.09" y1="107.11" x2="742.09" y2="137.14" stroke="#ef4444" stroke-width="1" stroke-linecap="round" /><rect x="739.59" y="123.75" width="5.01" height="5.55" rx="1" ry="1" fill="#ef4444" fill-opacity="0.85" /><line x1="749.30" y1="112.85" x2="749.30" y2="136.95" stroke="#22c55e" stroke-width="1" stroke-linecap="round" /><rect x="746.80" y="119.16" width="5.01" height="17.40" rx="1" ry="1" fill="#22c55e" fill-opacity="0.85" /><line x1="756.51" y1="121.84" x2="756.51" y2="140.39" stroke="#ef4444" stroke-width="1" stroke-linecap="round" /><rect x="754.01" y="125.47" width="5.01" height="11.67" rx="1" ry="1" fill="#ef4444" fill-opacity="0.85" /><line x1="763.72" y1="126.43" x2="763.72" y2="174.05" stroke="#ef4444" stroke-width="1" stroke-linecap="round" /><rect x="761.22" y="137.33" width="5.01" height="32.13" rx="1" ry="1" fill="#ef4444" fill-opacity="0.85" /><line x1="770.93" y1="155.11" x2="770.93" y2="178.64" stroke="#22c55e" stroke-width="1" stroke-linecap="round" /><rect x="768.43" y="166.59" width="5.01" height="12.05" rx="1" ry="1" fill="#22c55e" fill-opacity="0.85" /><line x1="778.14" y1="168.31" x2="778.14" y2="185.33" stroke="#ef4444" stroke-width="1" stroke-linecap="round" /><rect x="775.64" y="168.31" width="5.01" height="11.28" rx="1" ry="1" fill="#ef4444" fill-opacity="0.85" /><line x1="785.35" y1="174.05" x2="785.35" y2="185.14" stroke="#ef4444" stroke-width="1" stroke-linecap="round" /><rect x="782.84" y="179.60" width="5.01" height="1.00" rx="1" ry="1" fill="#ef4444" fill-opacity="0.85" /><line x1="792.56" y1="173.48" x2="792.56" y2="182.85" stroke="#22c55e" stroke-width="1" stroke-linecap="round" /><rect x="790.05" y="179.02" width="5.01" height="1.00" rx="1" ry="1" fill="#22c55e" fill-opacity="0.85" /><line x1="799.77" y1="180.17" x2="799.77" y2="203.31" stroke="#ef4444" stroke-width="1" stroke-linecap="round" /><rect x="797.26" y="180.17" width="5.01" height="19.32" rx="1" ry="1" fill="#ef4444" fill-opacity="0.85" /><line x1="806.98" y1="191.64" x2="806.98" y2="218.04" stroke="#ef4444" stroke-width="1" stroke-linecap="round" /><rect x="804.47" y="201.78" width="5.01" height="11.48" rx="1" ry="1" fill="#ef4444" fill-opacity="0.85" /><line x1="814.19" y1="189.54" x2="814.19" y2="225.50" stroke="#22c55e" stroke-width="1" stroke-linecap="round" /><rect x="811.68" y="201.40" width="5.01" height="24.10" rx="1" ry="1" fill="#22c55e" fill-opacity="0.85" /><line x1="821.40" y1="172.14" x2="821.40" y2="189.35" stroke="#ef4444" stroke-width="1" stroke-linecap="round" /><rect x="818.89" y="185.72" width="5.01" height="1.00" rx="1" ry="1" fill="#ef4444" fill-opacity="0.85" /><line x1="828.60" y1="176.73" x2="828.60" y2="207.52" stroke="#22c55e" stroke-width="1" stroke-linecap="round" /><rect x="826.10" y="185.14" width="5.01" height="4.21" rx="1" ry="1" fill="#22c55e" fill-opacity="0.85" /><line x1="835.81" y1="154.92" x2="835.81" y2="193.17" stroke="#22c55e" stroke-width="1" stroke-linecap="round" /><rect x="833.31" y="167.74" width="5.01" height="25.44" rx="1" ry="1" fill="#22c55e" fill-opacity="0.85" /><line x1="843.02" y1="156.64" x2="843.02" y2="203.12" stroke="#ef4444" stroke-width="1" stroke-linecap="round" /><rect x="840.52" y="170.22" width="5.01" height="18.17" rx="1" ry="1" fill="#ef4444" fill-opacity="0.85" /><line x1="850.23" y1="177.87" x2="850.23" y2="222.82" stroke="#ef4444" stroke-width="1" stroke-linecap="round" /><rect x="847.73" y="218.04" width="5.01" height="3.63" rx="1" ry="1" fill="#ef4444" fill-opacity="0.85" /><line x1="857.44" y1="198.72" x2="857.44" y2="222.82" stroke="#22c55e" stroke-width="1" stroke-linecap="round" /><rect x="854.94" y="207.14" width="5.01" height="11.48" rx="1" ry="1" fill="#22c55e" fill-opacity="0.85" /><line x1="864.65" y1="201.78" x2="864.65" y2="227.60" stroke="#ef4444" stroke-width="1" stroke-linecap="round" /><rect x="862.15" y="206.95" width="5.01" height="17.02" rx="1" ry="1" fill="#ef4444" fill-opacity="0.85" /><line x1="871.86" y1="191.45" x2="871.86" y2="223.39" stroke="#22c55e" stroke-width="1" stroke-linecap="round" /><rect x="869.36" y="191.45" width="5.01" height="28.50" rx="1" ry="1" fill="#22c55e" fill-opacity="0.85" /><line x1="879.07" y1="157.22" x2="879.07" y2="183.42" stroke="#22c55e" stroke-width="1" stroke-linecap="round" /><rect x="876.57" y="159.70" width="5.01" height="20.08" rx="1" ry="1" fill="#22c55e" fill-opacity="0.85" /><line x1="886.28" y1="171.18" x2="886.28" y2="198.72" stroke="#ef4444" stroke-width="1" stroke-linecap="round" /><rect x="883.78" y="171.18" width="5.01" height="17.98" rx="1" ry="1" fill="#ef4444" fill-opacity="0.85" /><line x1="893.49" y1="188.97" x2="893.49" y2="206.18" stroke="#ef4444" stroke-width="1" stroke-linecap="round" /><rect x="890.98" y="189.16" width="5.01" height="7.84" rx="1" ry="1" fill="#ef4444" fill-opacity="0.85" /><line x1="900.70" y1="195.28" x2="900.70" y2="204.46" stroke="#22c55e" stroke-width="1" stroke-linecap="round" /><rect x="898.19" y="198.53" width="5.01" height="1.34" rx="1" ry="1" fill="#22c55e" fill-opacity="0.85" /><line x1="907.91" y1="197.00" x2="907.91" y2="218.04" stroke="#ef4444" stroke-width="1" stroke-linecap="round" /><rect x="905.40" y="198.91" width="5.01" height="12.05" rx="1" ry="1" fill="#ef4444" fill-opacity="0.85" /><line x1="915.12" y1="211.92" x2="915.12" y2="229.51" stroke="#ef4444" stroke-width="1" stroke-linecap="round" /><rect x="912.61" y="213.83" width="5.01" height="13.20" rx="1" ry="1" fill="#ef4444" fill-opacity="0.85" /><line x1="922.33" y1="230.09" x2="922.33" y2="246.73" stroke="#ef4444" stroke-width="1" stroke-linecap="round" /><rect x="919.82" y="236.97" width="5.01" height="1.00" rx="1" ry="1" fill="#ef4444" fill-opacity="0.85" /><line x1="929.53" y1="213.26" x2="929.53" y2="244.81" stroke="#22c55e" stroke-width="1" stroke-linecap="round" /><rect x="927.03" y="218.61" width="5.01" height="20.27" rx="1" ry="1" fill="#22c55e" fill-opacity="0.85" /><line x1="936.74" y1="213.45" x2="936.74" y2="231.23" stroke="#22c55e" stroke-width="1" stroke-linecap="round" /><rect x="934.24" y="217.85" width="5.01" height="2.68" rx="1" ry="1" fill="#22c55e" fill-opacity="0.85" /><line x1="943.95" y1="213.26" x2="943.95" y2="239.08" stroke="#ef4444" stroke-width="1" stroke-linecap="round" /><rect x="941.45" y="216.32" width="5.01" height="1.00" rx="1" ry="1" fill="#ef4444" fill-opacity="0.85" /><line x1="951.16" y1="208.67" x2="951.16" y2="232.38" stroke="#ef4444" stroke-width="1" stroke-linecap="round" /><rect x="948.66" y="217.08" width="5.01" height="11.28" rx="1" ry="1" fill="#ef4444" fill-opacity="0.85" /><line x1="958.37" y1="215.36" x2="958.37" y2="236.97" stroke="#22c55e" stroke-width="1" stroke-linecap="round" /><rect x="955.87" y="221.86" width="5.01" height="15.11" rx="1" ry="1" fill="#22c55e" fill-opacity="0.85" /><line x1="965.58" y1="215.17" x2="965.58" y2="236.97" stroke="#ef4444" stroke-width="1" stroke-linecap="round" /><rect x="963.08" y="221.86" width="5.01" height="9.95" rx="1" ry="1" fill="#ef4444" fill-opacity="0.85" /><line x1="972.79" y1="230.47" x2="972.79" y2="244.43" stroke="#22c55e" stroke-width="1" stroke-linecap="round" /><rect x="970.29" y="237.93" width="5.01" height="6.50" rx="1" ry="1" fill="#22c55e" fill-opacity="0.85" /><line x1="980.00" y1="209.43" x2="980.00" y2="231.23" stroke="#22c55e" stroke-width="1" stroke-linecap="round" /><rect x="977.50" y="215.36" width="5.01" height="12.24" rx="1" ry="1" fill="#22c55e" fill-opacity="0.85" /></g>
  
  

  <circle cx="980.00" cy="215.36" r="4" fill="#e5e7eb" />
  <line x1="980.00" y1="215.36" x2="980" y2="215.36" stroke="#e5e7eb" stroke-opacity="0.25" />

  <text x="50" y="402" fill="#9ca3af" font-family="system-ui, -apple-system, sans-serif" font-size="12">Candles</text>
  <text x="120" y="402" fill="#22c55e" font-family="system-ui, -apple-system, sans-serif" font-size="12">■</text>
  <text x="134" y="402" fill="#ef4444" font-family="system-ui, -apple-system, sans-serif" font-size="12">■</text>
  <text x="120" y="402" fill="#9ca3af" font-family="system-ui, -apple-system, sans-serif" font-size="12">SMA20</text>
  <text x="175" y="402" fill="#22c55e" font-family="system-ui, -apple-system, sans-serif" font-size="12">▭▭</text>
  <text x="210" y="402" fill="#9ca3af" font-family="system-ui, -apple-system, sans-serif" font-size="12">SMA50</text>
  <text x="265" y="402" fill="#f59e0b" font-family="system-ui, -apple-system, sans-serif" font-size="12">▭▭</text>
</svg>
